<mxfile host="app.diagrams.net" modified="2023-04-07T20:47:07.810Z" agent="Mozilla/5.0 (Windows NT 10.0; Win64; x64) AppleWebKit/537.36 (KHTML, like Gecko) Chrome/111.0.0.0 Safari/537.36" etag="ljcxDWY_LgKAW4sNT2Ty" version="21.1.5" type="device">
  <diagram name="Page-1" id="MXNAVVKWULJbTZujJ1zt">
    <mxGraphModel dx="1603" dy="1969" grid="1" gridSize="10" guides="1" tooltips="1" connect="1" arrows="1" fold="1" page="1" pageScale="1" pageWidth="850" pageHeight="1100" math="0" shadow="0">
      <root>
        <mxCell id="0" />
        <mxCell id="1" parent="0" />
        <mxCell id="fjbMf7uKZVbJ3U_Xr0In-1" value="Voter" style="shape=umlActor;verticalLabelPosition=bottom;verticalAlign=top;html=1;outlineConnect=0;" vertex="1" parent="1">
          <mxGeometry x="-430" y="-1020" width="40" height="70" as="geometry" />
        </mxCell>
        <mxCell id="fjbMf7uKZVbJ3U_Xr0In-2" value=":Democracia2.0" style="rounded=0;whiteSpace=wrap;html=1;" vertex="1" parent="1">
          <mxGeometry x="130" y="-1020" width="130" height="70" as="geometry" />
        </mxCell>
        <mxCell id="fjbMf7uKZVbJ3U_Xr0In-3" value="" style="endArrow=none;dashed=1;html=1;rounded=0;" edge="1" parent="1">
          <mxGeometry width="50" height="50" relative="1" as="geometry">
            <mxPoint x="-410" y="-60" as="sourcePoint" />
            <mxPoint x="-410" y="-920" as="targetPoint" />
            <Array as="points" />
          </mxGeometry>
        </mxCell>
        <mxCell id="fjbMf7uKZVbJ3U_Xr0In-4" value="" style="endArrow=none;dashed=1;html=1;rounded=0;entryX=0.542;entryY=1.02;entryDx=0;entryDy=0;entryPerimeter=0;" edge="1" parent="1" target="fjbMf7uKZVbJ3U_Xr0In-2">
          <mxGeometry width="50" height="50" relative="1" as="geometry">
            <mxPoint x="200" y="-80" as="sourcePoint" />
            <mxPoint x="150" y="-670" as="targetPoint" />
          </mxGeometry>
        </mxCell>
        <mxCell id="fjbMf7uKZVbJ3U_Xr0In-5" value="" style="endArrow=block;html=1;rounded=0;endFill=1;" edge="1" parent="1">
          <mxGeometry x="0.0014" y="10" width="50" height="50" relative="1" as="geometry">
            <mxPoint x="-410" y="-860" as="sourcePoint" />
            <mxPoint x="200" y="-860" as="targetPoint" />
            <Array as="points">
              <mxPoint x="-50" y="-860" />
            </Array>
            <mxPoint as="offset" />
          </mxGeometry>
        </mxCell>
        <mxCell id="fjbMf7uKZVbJ3U_Xr0In-6" value="getActivePollsList()" style="text;html=1;align=center;verticalAlign=middle;resizable=0;points=[];autosize=1;strokeColor=none;fillColor=none;" vertex="1" parent="1">
          <mxGeometry x="-165" y="-885" width="130" height="30" as="geometry" />
        </mxCell>
        <mxCell id="fjbMf7uKZVbJ3U_Xr0In-10" value="" style="endArrow=none;dashed=1;html=1;rounded=0;startArrow=classic;startFill=1;" edge="1" parent="1">
          <mxGeometry width="50" height="50" relative="1" as="geometry">
            <mxPoint x="-410" y="-820" as="sourcePoint" />
            <mxPoint x="200" y="-820" as="targetPoint" />
          </mxGeometry>
        </mxCell>
        <mxCell id="fjbMf7uKZVbJ3U_Xr0In-12" value="lista dos bills em votação" style="text;html=1;align=center;verticalAlign=middle;resizable=0;points=[];autosize=1;strokeColor=none;fillColor=none;" vertex="1" parent="1">
          <mxGeometry x="-190" y="-840" width="160" height="30" as="geometry" />
        </mxCell>
        <mxCell id="fjbMf7uKZVbJ3U_Xr0In-14" value="" style="endArrow=classic;html=1;rounded=0;" edge="1" parent="1">
          <mxGeometry width="50" height="50" relative="1" as="geometry">
            <mxPoint x="-410" y="-780" as="sourcePoint" />
            <mxPoint x="200" y="-780" as="targetPoint" />
          </mxGeometry>
        </mxCell>
        <mxCell id="fjbMf7uKZVbJ3U_Xr0In-15" value="choosePoll(poll, checkForDelegateVote)" style="edgeLabel;html=1;align=center;verticalAlign=middle;resizable=0;points=[];" vertex="1" connectable="0" parent="fjbMf7uKZVbJ3U_Xr0In-14">
          <mxGeometry x="-0.0459" y="8" relative="1" as="geometry">
            <mxPoint as="offset" />
          </mxGeometry>
        </mxCell>
        <mxCell id="fjbMf7uKZVbJ3U_Xr0In-16" value="" style="endArrow=none;dashed=1;html=1;rounded=0;startArrow=classic;startFill=1;" edge="1" parent="1">
          <mxGeometry width="50" height="50" relative="1" as="geometry">
            <mxPoint x="-410" y="-660" as="sourcePoint" />
            <mxPoint x="200" y="-660" as="targetPoint" />
          </mxGeometry>
        </mxCell>
        <mxCell id="fjbMf7uKZVbJ3U_Xr0In-17" value="delegate vote" style="text;html=1;align=center;verticalAlign=middle;resizable=0;points=[];autosize=1;strokeColor=none;fillColor=none;" vertex="1" parent="1">
          <mxGeometry x="-150" y="-690" width="100" height="30" as="geometry" />
        </mxCell>
        <mxCell id="fjbMf7uKZVbJ3U_Xr0In-20" value="alt" style="shape=umlFrame;whiteSpace=wrap;html=1;pointerEvents=0;width=50;height=30;" vertex="1" parent="1">
          <mxGeometry x="-490" y="-720" width="750" height="90" as="geometry" />
        </mxCell>
        <mxCell id="fjbMf7uKZVbJ3U_Xr0In-21" value="[if voterHasDelegate == true &amp;amp;&amp;amp; checkForDelagateVote == true&amp;nbsp; ]" style="text;html=1;align=center;verticalAlign=middle;resizable=0;points=[];autosize=1;strokeColor=none;fillColor=none;" vertex="1" parent="1">
          <mxGeometry x="-400" y="-720" width="370" height="30" as="geometry" />
        </mxCell>
        <mxCell id="fjbMf7uKZVbJ3U_Xr0In-36" value="opt" style="shape=umlFrame;whiteSpace=wrap;html=1;pointerEvents=0;width=40;height=30;" vertex="1" parent="1">
          <mxGeometry x="-495" y="-610" width="755" height="370" as="geometry" />
        </mxCell>
        <mxCell id="fjbMf7uKZVbJ3U_Xr0In-37" value="" style="endArrow=classic;html=1;rounded=0;" edge="1" parent="1">
          <mxGeometry width="50" height="50" relative="1" as="geometry">
            <mxPoint x="-410" y="-560" as="sourcePoint" />
            <mxPoint x="200" y="-560" as="targetPoint" />
          </mxGeometry>
        </mxCell>
        <mxCell id="fjbMf7uKZVbJ3U_Xr0In-38" value="checkCitizenVote(poll,voter.id)" style="edgeLabel;html=1;align=center;verticalAlign=middle;resizable=0;points=[];" vertex="1" connectable="0" parent="fjbMf7uKZVbJ3U_Xr0In-37">
          <mxGeometry x="-0.0459" y="8" relative="1" as="geometry">
            <mxPoint x="-16" y="-2" as="offset" />
          </mxGeometry>
        </mxCell>
        <mxCell id="fjbMf7uKZVbJ3U_Xr0In-40" value="checkForDelegateVote está true por omissão&lt;br&gt;" style="text;html=1;align=center;verticalAlign=middle;resizable=0;points=[];autosize=1;strokeColor=none;fillColor=none;" vertex="1" parent="1">
          <mxGeometry x="-700" y="-790" width="260" height="30" as="geometry" />
        </mxCell>
        <mxCell id="fjbMf7uKZVbJ3U_Xr0In-51" value="" style="endArrow=none;dashed=1;html=1;rounded=0;startArrow=classic;startFill=1;" edge="1" parent="1">
          <mxGeometry width="50" height="50" relative="1" as="geometry">
            <mxPoint x="-410" y="-527.1800000000001" as="sourcePoint" />
            <mxPoint x="200" y="-527.1800000000001" as="targetPoint" />
          </mxGeometry>
        </mxCell>
        <mxCell id="fjbMf7uKZVbJ3U_Xr0In-52" value="hasVoted" style="text;html=1;align=center;verticalAlign=middle;resizable=0;points=[];autosize=1;strokeColor=none;fillColor=none;" vertex="1" parent="1">
          <mxGeometry x="-165" y="-552" width="70" height="30" as="geometry" />
        </mxCell>
        <mxCell id="fjbMf7uKZVbJ3U_Xr0In-57" value="alt" style="shape=umlFrame;whiteSpace=wrap;html=1;pointerEvents=0;width=30;height=30;" vertex="1" parent="1">
          <mxGeometry x="-480" y="-510" width="720" height="250" as="geometry" />
        </mxCell>
        <mxCell id="fjbMf7uKZVbJ3U_Xr0In-58" value="[if hasVoted == false]&amp;nbsp;" style="text;html=1;align=center;verticalAlign=middle;resizable=0;points=[];autosize=1;strokeColor=none;fillColor=none;" vertex="1" parent="1">
          <mxGeometry x="-410" y="-510" width="140" height="30" as="geometry" />
        </mxCell>
        <mxCell id="fjbMf7uKZVbJ3U_Xr0In-59" value="" style="endArrow=classic;html=1;rounded=0;" edge="1" parent="1">
          <mxGeometry width="50" height="50" relative="1" as="geometry">
            <mxPoint x="-410" y="-430.59000000000003" as="sourcePoint" />
            <mxPoint x="200" y="-430.59000000000003" as="targetPoint" />
          </mxGeometry>
        </mxCell>
        <mxCell id="fjbMf7uKZVbJ3U_Xr0In-60" value="vote(poll, voter.id, option)" style="edgeLabel;html=1;align=center;verticalAlign=middle;resizable=0;points=[];" vertex="1" connectable="0" parent="fjbMf7uKZVbJ3U_Xr0In-59">
          <mxGeometry x="-0.0459" y="8" relative="1" as="geometry">
            <mxPoint x="-16" y="-2" as="offset" />
          </mxGeometry>
        </mxCell>
        <mxCell id="fjbMf7uKZVbJ3U_Xr0In-71" value="alt" style="shape=umlFrame;whiteSpace=wrap;html=1;pointerEvents=0;width=30;height=30;" vertex="1" parent="1">
          <mxGeometry x="-450" y="-470" width="670" height="70" as="geometry" />
        </mxCell>
        <mxCell id="fjbMf7uKZVbJ3U_Xr0In-76" value="[wantsToVote]" style="text;html=1;align=center;verticalAlign=middle;resizable=0;points=[];autosize=1;strokeColor=none;fillColor=none;" vertex="1" parent="1">
          <mxGeometry x="-415" y="-610" width="100" height="30" as="geometry" />
        </mxCell>
        <mxCell id="fjbMf7uKZVbJ3U_Xr0In-77" value="&lt;span style=&quot;color: rgb(0, 0, 0); font-family: Helvetica; font-size: 12px; font-style: normal; font-variant-ligatures: normal; font-variant-caps: normal; font-weight: 400; letter-spacing: normal; orphans: 2; text-align: center; text-indent: 0px; text-transform: none; widows: 2; word-spacing: 0px; -webkit-text-stroke-width: 0px; background-color: rgb(251, 251, 251); text-decoration-thickness: initial; text-decoration-style: initial; text-decoration-color: initial; float: none; display: inline !important;&quot;&gt;[isDelegate == false]&amp;nbsp;&lt;/span&gt;" style="text;whiteSpace=wrap;html=1;" vertex="1" parent="1">
          <mxGeometry x="-390" y="-470" width="160" height="40" as="geometry" />
        </mxCell>
        <mxCell id="fjbMf7uKZVbJ3U_Xr0In-79" value="" style="shape=umlFrame;whiteSpace=wrap;html=1;pointerEvents=0;width=10;height=15;" vertex="1" parent="1">
          <mxGeometry x="-450" y="-400" width="670" height="80" as="geometry" />
        </mxCell>
        <mxCell id="fjbMf7uKZVbJ3U_Xr0In-80" value="[else]" style="text;html=1;align=center;verticalAlign=middle;resizable=0;points=[];autosize=1;strokeColor=none;fillColor=none;" vertex="1" parent="1">
          <mxGeometry x="-400" y="-400" width="50" height="30" as="geometry" />
        </mxCell>
        <mxCell id="fjbMf7uKZVbJ3U_Xr0In-81" value="" style="endArrow=classic;html=1;rounded=0;" edge="1" parent="1">
          <mxGeometry width="50" height="50" relative="1" as="geometry">
            <mxPoint x="-410" y="-360.59000000000003" as="sourcePoint" />
            <mxPoint x="200" y="-360.59000000000003" as="targetPoint" />
          </mxGeometry>
        </mxCell>
        <mxCell id="fjbMf7uKZVbJ3U_Xr0In-82" value="publicVote(poll, voter.id, option)" style="edgeLabel;html=1;align=center;verticalAlign=middle;resizable=0;points=[];" vertex="1" connectable="0" parent="fjbMf7uKZVbJ3U_Xr0In-81">
          <mxGeometry x="-0.0459" y="8" relative="1" as="geometry">
            <mxPoint x="-16" y="-2" as="offset" />
          </mxGeometry>
        </mxCell>
        <mxCell id="fjbMf7uKZVbJ3U_Xr0In-83" value="" style="endArrow=none;dashed=1;html=1;dashPattern=1 3;strokeWidth=2;rounded=0;entryX=0.001;entryY=-0.101;entryDx=0;entryDy=0;entryPerimeter=0;exitX=0.639;exitY=0.933;exitDx=0;exitDy=0;exitPerimeter=0;" edge="1" parent="1" source="fjbMf7uKZVbJ3U_Xr0In-40" target="fjbMf7uKZVbJ3U_Xr0In-20">
          <mxGeometry width="50" height="50" relative="1" as="geometry">
            <mxPoint x="-320" y="-490" as="sourcePoint" />
            <mxPoint x="-270" y="-540" as="targetPoint" />
          </mxGeometry>
        </mxCell>
      </root>
    </mxGraphModel>
  </diagram>
</mxfile>
